<?xml version="1.0" encoding="utf-8"?>
<?xml-stylesheet type="text/xsl" href="rss1.xsl"?>
<rss version="2.0" xmlns:atom="http://www.w3.org/2005/Atom" xmlns:content="http://purl.org/rss/1.0/modules/content/" xmlns:dc="http://purl.org/dc/elements/1.1/" xmlns:media="http://search.yahoo.com/mrss/">
<channel>
 <title>Getty</title>
 <link>http://www.gettyimg.com/</link>
 <atom:link href="http://www.gettyimg.com/" rel="self" type="application/rss+xml" />

 
                <item>
                <title><![CDATA[【BLU-RAY】BLU-RAY - Coldplay - Live 2012 1080p Blu-ray AVC DTS-HD MA 5.1-SZYMIX]]></title>
                <link><![CDATA[https://sharemania.us/threads/coldplay-live-2012-1080p-blu-ray-avc-dts-hd-ma-5-1-szymix.239312/]]></link>
                <description><![CDATA[<article>
<blockquote class="messageText SelectQuoteContainer ugc baseHtml">
<img src="https://is5-ssl.mzstatic.com/image/thumb/Video4/v4/e5/0c/1c/e50c1cf1-3218-7230-e6d8-73ad5feb9cfb/5099941647257.pstr.jpg/100000x100000-999.jpg" class="bbCodeImage LbImage" alt="[​IMG]" data-url="https://is5-ssl.mzstatic.com/image/thumb/Video4/v4/e5/0c/1c/e50c1cf1-3218-7230-e6d8-73ad5feb9cfb/5099941647257.pstr.jpg/100000x100000-999.jpg" style=""> <br>
<img src="https://i.postimg.cc/LsLZRDqr/Coldplay-Live-2012-1080p-Blu-ray-AVC-DTS-HD-MA-5-1-SZYMIX-mkv.jpg" class="bbCodeImage LbImage" alt="[​IMG]" data-url="https://i.postimg.cc/LsLZRDqr/Coldplay-Live-2012-1080p-Blu-ray-AVC-DTS-HD-MA-5-1-SZYMIX-mkv.jpg" style=""> <br>
<div class="ToggleTriggerAnchor bbCodeSpoilerContainer">
<button type="button" class="button bbCodeSpoilerButton ToggleTrigger Tooltip JsOnly" data-target="> .SpoilerTarget"><span>Spoiler: <span class="SpoilerTitle">Media Info</span></span></button>
<div class="SpoilerTarget bbCodeSpoilerText">General<br>
Unique ID : 297435975892794942618264308594162096651 (0xDFC415D30265B17554C74704DC455A0B)<br>
Complete name : Coldplay - Live 2012 1080p Blu-ray AVC DTS-HD MA 5.1-SZYMIX.mkv<br>
Format : Matroska<br>
Format version : Version 2<br>
File size : 28.0 GiB<br>
Duration : 1 h 36 min<br>
Overall bit rate mode : Variable<br>
Overall bit rate : 41.4 Mb/s<br>
Frame rate : 29.970 FPS<br>
Encoded date : 2024-03-05 19:18:30 UTC<br>
Writing application : MakeMKV v1.17.6 win(x64-release)<br>
Writing library : libmakemkv v1.17.6 (1.3.10/1.5.2) win(x64-release)<br>
<br>
Video<br>
ID : 1<br>
ID in the original source medium : 4113 (0x1011)<br>
Format : AVC<br>
Format/Info : Advanced Video Codec<br>
Format profile : High@L4.1<br>
Format settings : CABAC / 4 Ref Frames<br>
Format settings, CABAC : Yes<br>
Format settings, Reference frames : 4 frames<br>
Format settings, Slice count : 4 slices per frame<br>
Codec ID : V_MPEG4/ISO/AVC<br>
Duration : 1 h 36 min<br>
Bit rate mode : Variable<br>
Bit rate : 32.1 Mb/s<br>
Maximum bit rate : 40.0 Mb/s<br>
Width : 1 920 pixels<br>
Height : 1 080 pixels<br>
Display aspect ratio : 16:9<br>
Frame rate mode : Constant<br>
Frame rate : 29.970 (30000/1001) FPS<br>
Standard : NTSC<br>
Color space : YUV<br>
Chroma subsampling : 4:2:0<br>
Bit depth : 8 bits<br>
Scan type : MBAFF<br>
Scan type, store method : Interleaved fields<br>
Scan order : Top Field First<br>
Bits/(Pixel*Frame) : 0.516<br>
Stream size : 21.7 GiB (77%)<br>
Language : English<br>
Default : No<br>
Forced : No<br>
Color range : Limited<br>
Color primaries : BT.709<br>
Transfer characteristics : BT.709<br>
Matrix coefficients : BT.709<br>
Original source medium : Blu-ray<br>
<br>
Audio #1<br>
ID : 2<br>
ID in the original source medium : 4352 (0x1100)<br>
Format : PCM<br>
Format settings : Little / Signed<br>
Codec ID : A_PCM/INT/LIT<br>
Duration : 1 h 36 min<br>
Bit rate mode : Constant<br>
Bit rate : 2 304 kb/s<br>
Channel(s) : 2 channels<br>
Sampling rate : 48.0 kHz<br>
Frame rate : 30.000 FPS (1600 SPF)<br>
Bit depth : 24 bits<br>
Stream size : 1.56 GiB (6%)<br>
Title : Stereo<br>
Language : English<br>
Default : Yes<br>
Forced : No<br>
Original source medium : Blu-ray<br>
<br>
Audio #2<br>
ID : 3<br>
ID in the original source medium : 4353 (0x1101)<br>
Format : DTS XLL<br>
Format/Info : Digital Theater Systems<br>
Commercial name : DTS-HD Master Audio<br>
Codec ID : A_DTS<br>
Duration : 1 h 36 min<br>
Bit rate mode : Variable<br>
Bit rate : 4 761 kb/s<br>
Channel(s) : 6 channels<br>
Channel layout : C L R Ls Rs LFE<br>
Sampling rate : 48.0 kHz<br>
Frame rate : 93.750 FPS (512 SPF)<br>
Bit depth : 24 bits<br>
Compression mode : Lossless<br>
Stream size : 3.22 GiB (11%)<br>
Title : Wielokanałowy 5.1<br>
Language : English<br>
Default : No<br>
Forced : No<br>
Original source medium : Blu-ray<br>
<br>
Audio #3<br>
ID : 4<br>
ID in the original source medium : 4353 (0x1101)<br>
Format : DTS<br>
Format/Info : Digital Theater Systems<br>
Codec ID : A_DTS<br>
Duration : 1 h 36 min<br>
Bit rate mode : Constant<br>
Bit rate : 1 509 kb/s<br>
Channel(s) : 6 channels<br>
Channel layout : C L R Ls Rs LFE<br>
Sampling rate : 48.0 kHz<br>
Frame rate : 93.750 FPS (512 SPF)<br>
Bit depth : 24 bits<br>
Compression mode : Lossy<br>
Stream size : 1.02 GiB (4%)<br>
Title : Wielokanałowy 5.1<br>
Language : English<br>
Default : No<br>
Forced : No<br>
Original source medium : Blu-ray<br>
<br>
Audio #4<br>
ID : 5<br>
ID in the original source medium : 4354 (0x1102)<br>
Format : AC-3<br>
Format/Info : Audio Coding 3<br>
Commercial name : Dolby Digital<br>
Codec ID : A_AC3<br>
Duration : 1 h 36 min<br>
Bit rate mode : Constant<br>
Bit rate : 640 kb/s<br>
Channel(s) : 6 channels<br>
Channel layout : L R C LFE Ls Rs<br>
Sampling rate : 48.0 kHz<br>
Frame rate : 31.250 FPS (1536 SPF)<br>
Compression mode : Lossy<br>
Stream size : 444 MiB (2%)<br>
Title : Wielokanałowy 5.1<br>
Language : English<br>
Service kind : Complete Main<br>
Default : No<br>
Forced : No<br>
Original source medium : Blu-ray<br>
<br>
Text #1<br>
ID : 6<br>
ID in the original source medium : 4608 (0x1200)<br>
Format : PGS<br>
Codec ID : S_HDMV/PGS<br>
Codec ID/Info : Picture based subtitle format used on BDs/HD-DVDs<br>
Duration : 1 h 20 min<br>
Bit rate : 14.6 kb/s<br>
Frame rate : 0.114 FPS<br>
Count of elements : 552<br>
Stream size : 8.42 MiB (0%)<br>
Language : English<br>
Default : No<br>
Forced : No<br>
Original source medium : Blu-ray<br>
<br>
Text #2<br>
ID : 8<br>
ID in the original source medium : 4609 (0x1201)<br>
Format : PGS<br>
Codec ID : S_HDMV/PGS<br>
Codec ID/Info : Picture based subtitle format used on BDs/HD-DVDs<br>
Duration : 1 h 30 min<br>
Bit rate : 28.6 kb/s<br>
Frame rate : 0.318 FPS<br>
Count of elements : 1718<br>
Stream size : 18.4 MiB (0%)<br>
Language : English<br>
Default : No<br>
Forced : No<br>
Original source medium : Blu-ray<br>
<br>
Text #3<br>
ID : 10<br>
ID in the original source medium : 4610 (0x1202)<br>
Format : PGS<br>
Codec ID : S_HDMV/PGS<br>
Codec ID/Info : Picture based subtitle format used on BDs/HD-DVDs<br>
Duration : 1 h 36 min<br>
Bit rate : 11.8 kb/s<br>
Frame rate : 0.151 FPS<br>
Count of elements : 876<br>
Stream size : 8.15 MiB (0%)<br>
Language : French<br>
Default : No<br>
Forced : No<br>
Original source medium : Blu-ray<br>
<br>
Text #4<br>
ID : 12<br>
ID in the original source medium : 4611 (0x1203)<br>
Format : PGS<br>
Codec ID : S_HDMV/PGS<br>
Codec ID/Info : Picture based subtitle format used on BDs/HD-DVDs<br>
Duration : 1 h 20 min<br>
Bit rate : 15.5 kb/s<br>
Frame rate : 0.115 FPS<br>
Count of elements : 554<br>
Stream size : 8.91 MiB (0%)<br>
Language : German<br>
Default : No<br>
Forced : No<br>
Original source medium : Blu-ray<br>
<br>
Text #5<br>
ID : 14<br>
ID in the original source medium : 4612 (0x1204)<br>
Format : PGS<br>
Codec ID : S_HDMV/PGS<br>
Codec ID/Info : Picture based subtitle format used on BDs/HD-DVDs<br>
Duration : 1 h 20 min<br>
Bit rate : 15.5 kb/s<br>
Frame rate : 0.115 FPS<br>
Count of elements : 554<br>
Stream size : 8.95 MiB (0%)<br>
Language : Spanish<br>
Default : No<br>
Forced : No<br>
Original source medium : Blu-ray<br>
<br>
Text #6<br>
ID : 16<br>
ID in the original source medium : 4613 (0x1205)<br>
Format : PGS<br>
Codec ID : S_HDMV/PGS<br>
Codec ID/Info : Picture based subtitle format used on BDs/HD-DVDs<br>
Duration : 1 h 20 min<br>
Bit rate : 13.4 kb/s<br>
Frame rate : 0.114 FPS<br>
Count of elements : 552<br>
Stream size : 7.71 MiB (0%)<br>
Language : Italian<br>
Default : No<br>
Forced : No<br>
Original source medium : Blu-ray<br>
<br>
Text #7<br>
ID : 18<br>
ID in the original source medium : 4614 (0x1206)<br>
Format : PGS<br>
Codec ID : S_HDMV/PGS<br>
Codec ID/Info : Picture based subtitle format used on BDs/HD-DVDs<br>
Duration : 1 h 20 min<br>
Bit rate : 13.7 kb/s<br>
Frame rate : 0.116 FPS<br>
Count of elements : 558<br>
Stream size : 7.86 MiB (0%)<br>
Language : Portuguese<br>
Default : No<br>
Forced : No<br>
Original source medium : Blu-ray<br>
<br>
Menu<br>
00:00:00.000 : en:Rozdział 01<br>
00:00:37.637 : en:Rozdział 02<br>
00:01:31.724 : en:Rozdział 03<br>
00:05:47.780 : en:Rozdział 04<br>
00:09:43.516 : en:Rozdział 05<br>
00:13:53.432 : en:Rozdział 06<br>
00:17:22.875 : en:Rozdział 07<br>
00:24:15.387 : en:Rozdział 08<br>
00:27:29.247 : en:Rozdział 09<br>
00:31:16.040 : en:Rozdział 10<br>
00:36:09.500 : en:Rozdział 11<br>
00:40:03.401 : en:Rozdział 12<br>
00:43:31.942 : en:Rozdział 13<br>
00:46:51.575 : en:Rozdział 14<br>
00:51:48.238 : en:Rozdział 15<br>
00:55:33.363 : en:Rozdział 16<br>
01:00:45.975 : en:Rozdział 17<br>
01:06:54.877 : en:Rozdział 18<br>
01:12:52.368 : en:Rozdział 19<br>
01:17:15.664 : en:Rozdział 20<br>
01:20:30.458 : en:Rozdział 21<br>
01:25:39.667 : en:Rozdział 22<br>
01:31:38.226 : en:Rozdział 23</div>
</div>Ripped by me <img src="styles/default/xenforo/smilies/big_smile-48.png" class="mceSmilie" alt=":)" title="Smile    :)"><br>
<br>
<div class="bbCodeBlock bbCodeVfcHH HiddenContent">
<div class="attribution type">Hidden Content:</div>
<blockquote>You must either reply or click 'Like' to see the hidden information contained here.</blockquote>
</div>
<div class="messageTextEndMarker">&nbsp;</div>
</blockquote>
</article>]]></description>
                <author><![CDATA[szymek04sawicki]]></author>
                </item>

                
                <item>
                <title><![CDATA[【Albums (lossy)】MP3 - Luciano Pereyra - Volverte a ver (2010) [MP3 320kbps / 44.1kHz]]]></title>
                <link><![CDATA[https://sharemania.us/threads/luciano-pereyra-volverte-a-ver-2010-mp3-320kbps-44-1khz.239313/]]></link>
                <description><![CDATA[<article>
<blockquote class="messageText SelectQuoteContainer ugc baseHtml">
<div style="text-align: center"><span style="font-size: 26px"><span style="color: #006600"><b>Luciano Pereyra</b></span></span><br>
<b><span style="font-size: 18px">Volverte a ver (2010)</span></b><br>
[MP3 320kbps/44.1kHz]<br>
<br>
<img src="https://i.discogs.com/buAhYJL2tHLIGDmX1k_nbgeMf8mSMoqpkVM8X6RD9jE/rs:fit/g:sm/q:90/h:600/w:600/czM6Ly9kaXNjb2dz/LWRhdGFiYXNlLWlt/YWdlcy9SLTExNjY4/NTQ2LTE1MjAzNDk5/NzItODI0NC5qcGVn.jpeg" class="bbCodeImage LbImage" alt="[​IMG]" data-url="https://i.discogs.com/buAhYJL2tHLIGDmX1k_nbgeMf8mSMoqpkVM8X6RD9jE/rs:fit/g:sm/q:90/h:600/w:600/czM6Ly9kaXNjb2dz/LWRhdGFiYXNlLWlt/YWdlcy9SLTExNjY4/NTQ2LTE1MjAzNDk5/NzItODI0NC5qcGVn.jpeg" style=""> <br>
<br>
​</div>
<div class="ToggleTriggerAnchor bbCodeSpoilerContainer">
<button type="button" class="button bbCodeSpoilerButton ToggleTrigger Tooltip JsOnly" data-target="> .SpoilerTarget"><span>Spoiler: <span class="SpoilerTitle">Tracklist</span></span></button>
<div class="SpoilerTarget bbCodeSpoilerText">1 Si Me Pudieras Ver<br>
2 Yo Te Queria Querer<br>
3 Quien Nos Dijo<br>
4 Que Mundo Loco<br>
5 Sin Tu Amor<br>
6 Parecido A Mi<br>
7 El Vestido Rojo<br>
8 Si Pudiera Dejarte<br>
9 Nunca Muere Un Gran Amor<br>
10 A Destiempo</div>
</div><div style="text-align: center"><br>
<div class="bbCodeBlock bbCodeVfcHH HiddenContent">
<div class="attribution type">Hidden Content:</div>
<blockquote>You must reply before you can see the hidden data contained here.</blockquote>
</div></div>
<div class="messageTextEndMarker">&nbsp;</div>
</blockquote>
</article>]]></description>
                <author><![CDATA[cnature]]></author>
                </item>

                </channel></rss>